<svg width="16" height="11" viewBox="0 0 16 11" fill="none" xmlns="http://www.w3.org/2000/svg">
<path d="M15.7837 2.26172C15.9009 3.08203 15.9595 3.89062 15.9595 4.6875V5.8125L15.7837 8.23828C15.6899 8.91797 15.4907 9.41016 15.186 9.71484C14.8579 10.043 14.3657 10.2539 13.7095 10.3477C13.0767 10.3945 12.3149 10.4297 11.4243 10.4531C10.5571 10.4766 9.84229 10.4883 9.27979 10.4883H8.43604C5.83447 10.4648 4.13525 10.418 3.33838 10.3477C3.33838 10.3477 3.24463 10.3359 3.05713 10.3125C2.86963 10.2891 2.71729 10.2656 2.6001 10.2422C2.48291 10.2188 2.33057 10.1602 2.14307 10.0664C1.979 9.97266 1.82666 9.85547 1.68604 9.71484C1.56885 9.57422 1.45166 9.38672 1.33447 9.15234C1.24072 8.89453 1.18213 8.67188 1.15869 8.48438L1.08838 8.23828C0.994629 7.41797 0.947754 6.60938 0.947754 5.8125V4.6875L1.08838 2.26172C1.18213 1.58203 1.38135 1.08984 1.68604 0.785156C2.01416 0.433594 2.51807 0.222656 3.19775 0.152344C3.83057 0.105469 4.58057 0.0703125 5.44775 0.046875C6.31494 0.0234375 7.02979 0.0117188 7.59229 0.0117188H8.43604C10.5454 0.0117188 12.3032 0.0585937 13.7095 0.152344C14.3657 0.222656 14.8579 0.433594 15.186 0.785156C15.2798 0.878906 15.3618 0.996094 15.4321 1.13672C15.5024 1.25391 15.561 1.38281 15.6079 1.52344C15.6548 1.64062 15.6899 1.75781 15.7134 1.875C15.7368 1.99219 15.7603 2.08594 15.7837 2.15625V2.26172ZM10.4751 5.35547L10.9673 5.10938L6.92432 3V7.21875L10.4751 5.35547Z" fill="#F9F9F9"/>
</svg>
