<svg width="13" height="17" viewBox="0 0 13 17" fill="none" xmlns="http://www.w3.org/2000/svg">
<path d="M2.32202 1.89844C3.46785 0.752604 4.84806 0.179688 6.46265 0.179688C8.07723 0.179688 9.45744 0.752604 10.6033 1.89844C11.7491 3.01823 12.322 4.38542 12.322 6C12.322 6.80729 12.1137 7.74479 11.697 8.8125C11.3064 9.85417 10.8246 10.8307 10.2517 11.7422C9.67879 12.6276 9.10588 13.474 8.53296 14.2812C7.96004 15.0625 7.47827 15.6875 7.08765 16.1562L6.46265 16.8203C6.3064 16.6641 6.09806 16.4297 5.83765 16.1172C5.57723 15.8047 5.10848 15.2057 4.4314 14.3203C3.78035 13.4089 3.19442 12.5365 2.67358 11.7031C2.15275 10.8438 1.684 9.88021 1.26733 8.8125C0.850667 7.74479 0.642334 6.80729 0.642334 6C0.642334 4.38542 1.20223 3.01823 2.32202 1.89844ZM4.97827 7.48438C5.39494 7.875 5.88973 8.07031 6.46265 8.07031C7.03556 8.07031 7.53035 7.875 7.94702 7.48438C8.36369 7.06771 8.57202 6.57292 8.57202 6C8.57202 5.42708 8.36369 4.94531 7.94702 4.55469C7.53035 4.13802 7.03556 3.92969 6.46265 3.92969C5.88973 3.92969 5.39494 4.13802 4.97827 4.55469C4.58765 4.94531 4.39233 5.42708 4.39233 6C4.39233 6.57292 4.58765 7.06771 4.97827 7.48438Z" fill="white"/>
</svg>
