<svg width="16" height="16" viewBox="0 0 16 16" fill="none" xmlns="http://www.w3.org/2000/svg">
<path d="M14.4478 4.13672V2.625C14.4478 2.36719 14.3188 2.23828 14.061 2.23828H12.5845C12.3267 2.23828 12.1978 2.36719 12.1978 2.625V4.13672C12.1978 4.37109 12.3267 4.48828 12.5845 4.48828H14.061C14.3188 4.48828 14.4478 4.37109 14.4478 4.13672ZM2.81104 14.2617H14.061C14.3188 14.2617 14.4478 14.1328 14.4478 13.875V7.51172H12.8657C12.9126 7.79297 12.936 8.03906 12.936 8.25C12.936 9.49219 12.4907 10.5586 11.6001 11.4492C10.7329 12.3164 9.67822 12.75 8.43604 12.75C7.19385 12.75 6.12744 12.3164 5.23682 11.4492C4.36963 10.5586 3.93604 9.49219 3.93604 8.25C3.93604 7.99219 3.95947 7.74609 4.00635 7.51172H2.45947V13.875C2.45947 14.1328 2.57666 14.2617 2.81104 14.2617ZM10.5806 6.14062C9.99463 5.55469 9.27979 5.26172 8.43604 5.26172C7.61572 5.26172 6.9126 5.55469 6.32666 6.14062C5.74072 6.72656 5.44775 7.42969 5.44775 8.25C5.44775 9.07031 5.74072 9.77344 6.32666 10.3594C6.9126 10.9453 7.61572 11.2383 8.43604 11.2383C9.27979 11.2383 9.99463 10.9453 10.5806 10.3594C11.1665 9.77344 11.4595 9.07031 11.4595 8.25C11.4595 7.42969 11.1665 6.72656 10.5806 6.14062ZM14.4478 0.761719C14.8696 0.761719 15.2212 0.914062 15.5024 1.21875C15.8071 1.5 15.9595 1.83984 15.9595 2.23828V14.2617C15.9595 14.6602 15.8071 15 15.5024 15.2812C15.2212 15.5859 14.8696 15.7383 14.4478 15.7383H2.45947C2.0376 15.7383 1.67432 15.5859 1.36963 15.2812C1.08838 15 0.947754 14.6602 0.947754 14.2617V2.23828C0.947754 1.83984 1.08838 1.5 1.36963 1.21875C1.67432 0.914062 2.0376 0.761719 2.45947 0.761719H14.4478Z" fill="#F9F9F9"/>
</svg>
