<svg width="73" height="30" viewBox="0 0 73 30" fill="none" xmlns="http://www.w3.org/2000/svg">
<path d="M8.12821 24.4606C6.57565 24.4398 5.30971 24.2946 4.3304 24.0249C3.37498 23.7552 2.61064 23.3817 2.03738 22.9046C1.48802 22.4066 1.10585 21.8154 0.890876 21.1307C0.699791 20.4253 0.604248 19.6369 0.604248 18.7656V0.746888L5.94268 0V17.8319C5.94268 18.2469 5.97851 18.6203 6.05017 18.9523C6.12182 19.2842 6.2532 19.5643 6.44428 19.7925C6.65925 20.0207 6.95782 20.2075 7.33999 20.3527C7.72216 20.4979 8.2357 20.5913 8.88061 20.6328L8.12821 24.4606Z" fill="#041E50"/>
<path d="M29.5682 15.9336C29.5682 17.2199 29.3532 18.4025 28.9233 19.4813C28.4933 20.5394 27.8723 21.4523 27.0602 22.2199C26.2481 22.9668 25.2688 23.5477 24.1222 23.9627C22.9996 24.3776 21.7337 24.5851 20.3244 24.5851C18.9391 24.5851 17.6731 24.3776 16.5266 23.9627C15.404 23.5477 14.4366 22.9668 13.6245 22.2199C12.8124 21.4523 12.1794 20.5394 11.7256 19.4813C11.2718 18.4025 11.0449 17.2199 11.0449 15.9336C11.0449 14.6473 11.2718 13.4751 11.7256 12.417C12.2033 11.3589 12.8482 10.4564 13.6603 9.70954C14.4963 8.96266 15.4757 8.38174 16.5983 7.9668C17.7448 7.55187 18.9868 7.3444 20.3244 7.3444C21.6859 7.3444 22.928 7.55187 24.0506 7.9668C25.1971 8.38174 26.1764 8.96266 26.9885 9.70954C27.8006 10.4564 28.4336 11.3589 28.8874 12.417C29.3412 13.4751 29.5682 14.6473 29.5682 15.9336ZM24.1222 15.9336C24.1222 14.5021 23.7878 13.3817 23.119 12.5726C22.4741 11.7427 21.5426 11.3278 20.3244 11.3278C19.1063 11.3278 18.1628 11.7427 17.494 12.5726C16.8252 13.3817 16.4908 14.5021 16.4908 15.9336C16.4908 17.3651 16.8252 18.5062 17.494 19.3568C18.1628 20.1867 19.1063 20.6017 20.3244 20.6017C21.5426 20.6017 22.4741 20.1867 23.119 19.3568C23.7878 18.5062 24.1222 17.3651 24.1222 15.9336Z" fill="#041E50"/>
<path d="M38.2538 15.4357C38.2538 18.029 39.46 19.3257 41.8724 19.3257C42.4218 19.3257 42.9353 19.2635 43.413 19.139C43.8908 19.0145 44.2968 18.8693 44.6312 18.7033V11.2967C44.3685 11.2552 44.058 11.2241 43.6997 11.2033C43.3414 11.1618 42.9234 11.1411 42.4457 11.1411C41.0364 11.1411 39.9855 11.5456 39.2928 12.3548C38.6001 13.1639 38.2538 14.1909 38.2538 15.4357ZM49.9697 22.0954C49.9697 24.7718 49.1814 26.7531 47.605 28.0394C46.0524 29.3465 43.64 30 40.3676 30C39.2211 30 38.0746 29.9066 36.9281 29.7199C35.7816 29.5539 34.7187 29.3257 33.7394 29.0353L34.6709 25.1452C35.5069 25.4357 36.3787 25.6639 37.2864 25.8299C38.2179 25.9959 39.2689 26.0788 40.4393 26.0788C41.968 26.0788 43.0428 25.7884 43.6638 25.2075C44.3088 24.6266 44.6312 23.8797 44.6312 22.9668V22.3755C44.058 22.6037 43.4608 22.7801 42.8398 22.9046C42.2427 23.0083 41.5858 23.0602 40.8692 23.0602C38.2657 23.0602 36.2712 22.3963 34.8859 21.0685C33.5005 19.7199 32.8078 17.8423 32.8078 15.4357C32.8078 14.2324 33.0228 13.1432 33.4527 12.168C33.8827 11.1722 34.5037 10.3216 35.3158 9.61618C36.1518 8.91079 37.167 8.37137 38.3612 7.99792C39.5555 7.60373 40.9051 7.40664 42.4099 7.40664C43.0548 7.40664 43.7116 7.43776 44.3804 7.5C45.0731 7.54149 45.7538 7.60373 46.4226 7.68672C47.0914 7.76971 47.7244 7.87344 48.3215 7.99792C48.9426 8.10166 49.4919 8.21577 49.9697 8.34025V22.0954Z" fill="#041E50"/>
<path d="M72.6042 15.9336C72.6042 17.2199 72.3893 18.4025 71.9593 19.4813C71.5294 20.5394 70.9084 21.4523 70.0963 22.2199C69.2841 22.9668 68.3048 23.5477 67.1583 23.9627C66.0357 24.3776 64.7698 24.5851 63.3605 24.5851C61.9752 24.5851 60.7092 24.3776 59.5627 23.9627C58.4401 23.5477 57.4727 22.9668 56.6606 22.2199C55.8485 21.4523 55.2155 20.5394 54.7617 19.4813C54.3079 18.4025 54.081 17.2199 54.081 15.9336C54.081 14.6473 54.3079 13.4751 54.7617 12.417C55.2394 11.3589 55.8843 10.4564 56.6964 9.70954C57.5324 8.96266 58.5117 8.38174 59.6344 7.9668C60.7809 7.55187 62.0229 7.3444 63.3605 7.3444C64.722 7.3444 65.9641 7.55187 67.0867 7.9668C68.2332 8.38174 69.2125 8.96266 70.0246 9.70954C70.8367 10.4564 71.4697 11.3589 71.9235 12.417C72.3773 13.4751 72.6042 14.6473 72.6042 15.9336ZM67.1583 15.9336C67.1583 14.5021 66.8239 13.3817 66.1551 12.5726C65.5102 11.7427 64.5787 11.3278 63.3605 11.3278C62.1423 11.3278 61.1989 11.7427 60.5301 12.5726C59.8613 13.3817 59.5269 14.5021 59.5269 15.9336C59.5269 17.3651 59.8613 18.5062 60.5301 19.3568C61.1989 20.1867 62.1423 20.6017 63.3605 20.6017C64.5787 20.6017 65.5102 20.1867 66.1551 19.3568C66.8239 18.5062 67.1583 17.3651 67.1583 15.9336Z" fill="#041E50"/>
</svg>
