<svg width="20" height="20" viewBox="0 0 20 20" fill="none" xmlns="http://www.w3.org/2000/svg">
<path d="M4.37973 8.62964C5.97088 11.7781 8.3576 14.1648 11.5399 15.7898L13.9266 13.4031C14.2313 13.0645 14.6037 12.9799 15.0438 13.1492C16.2625 13.5554 17.549 13.7585 18.9032 13.7585C19.174 13.7585 19.411 13.8601 19.6141 14.0632C19.8511 14.2664 19.9696 14.5203 19.9696 14.825V18.6335C19.9696 18.9044 19.8511 19.1583 19.6141 19.3953C19.411 19.5984 19.174 19.7 18.9032 19.7C15.5516 19.7 12.454 18.8875 9.6102 17.2625C6.80031 15.6036 4.56593 13.3692 2.90708 10.5593C1.28208 7.71558 0.469578 4.61792 0.469578 1.26636C0.469578 0.995524 0.57114 0.758545 0.774265 0.55542C1.01124 0.318441 1.26515 0.199951 1.53598 0.199951H5.34458C5.64927 0.199951 5.90317 0.318441 6.1063 0.55542C6.30942 0.758545 6.41098 0.995524 6.41098 1.26636C6.41098 2.62052 6.61411 3.90698 7.02036 5.12573C7.15578 5.56584 7.07114 5.93823 6.76645 6.24292L4.37973 8.62964Z" fill="white"/>
</svg>
