<svg width="12" height="12" viewBox="0 0 12 12" fill="none" xmlns="http://www.w3.org/2000/svg">
<path d="M9.90674 2.16797H1.7583V10.3164H9.90674V2.16797ZM9.90674 0.992188C10.2349 0.992188 10.5083 1.11068 10.7271 1.34766C10.964 1.56641 11.0825 1.83984 11.0825 2.16797V10.3164C11.0825 10.6445 10.964 10.9271 10.7271 11.1641C10.5083 11.3828 10.2349 11.4922 9.90674 11.4922H1.7583C1.43018 11.4922 1.14762 11.3828 0.910645 11.1641C0.691895 10.9271 0.58252 10.6445 0.58252 10.3164V2.16797C0.58252 1.83984 0.691895 1.56641 0.910645 1.34766C1.14762 1.11068 1.43018 0.992188 1.7583 0.992188H9.90674Z" fill="#041E50"/>
</svg>
